<svg width="64" height="64" viewBox="0 0 64 64" fill="none" xmlns="http://www.w3.org/2000/svg">
<mask id="mask0_97_81" style="mask-type:luminance" maskUnits="userSpaceOnUse" x="31" y="14" width="26" height="50">
<path d="M31.6609 14.4232H56.7652V64H31.6609V14.4232Z" fill="white"/>
</mask>
<g mask="url(#mask0_97_81)">
<path d="M32.2899 14.9276V23.3276L48.3507 39.3884L38.571 49.171L32.2899 55.4522V63.8522L56.7536 39.3884L50.5942 33.229L32.2899 14.9276Z" fill="#7B7979"/>
</g>
<mask id="mask1_97_81" style="mask-type:luminance" maskUnits="userSpaceOnUse" x="7" y="32" width="26" height="32">
<path d="M7.79131 32.9739H32.4029V64H7.79131V32.9739Z" fill="white"/>
</mask>
<g mask="url(#mask1_97_81)">
<path d="M26.0116 49.171L16.229 39.3884L18.2927 37.3275L14.0927 33.1246L13.9884 33.229L7.82608 39.3884L32.2898 63.8522V55.4522L26.0116 49.171Z" fill="#444142"/>
</g>
<mask id="mask2_97_81" style="mask-type:luminance" maskUnits="userSpaceOnUse" x="31" y="0" width="26" height="31">
<path d="M31.6609 0H56.7652V30.7478H31.6609V0Z" fill="white"/>
</mask>
<g mask="url(#mask2_97_81)">
<path d="M38.5681 14.6812L48.3507 24.4638L46.2899 26.5275L50.4899 30.7275L50.5942 30.6261L56.7536 24.4638L32.2899 0V8.4058L38.5681 14.6812Z" fill="#6AC23F"/>
</g>
<mask id="mask3_97_81" style="mask-type:luminance" maskUnits="userSpaceOnUse" x="7" y="0" width="26" height="50">
<path d="M7.79131 0H32.4029V49.2986H7.79131V0Z" fill="white"/>
</mask>
<g mask="url(#mask3_97_81)">
<path d="M16.229 24.4638L32.2898 8.4029V8.4058V0L7.82608 24.4638L32.2898 48.9275V40.5246L16.229 24.4638Z" fill="#498536"/>
</g>
</svg>
