<svg width="407" height="116" viewBox="0 0 407 116" fill="none" xmlns="http://www.w3.org/2000/svg">
<mask id="mask0_85_904" style="mask-type:luminance" maskUnits="userSpaceOnUse" x="43" y="26" width="46" height="90">
<path d="M43 26H88.1094V115.083H43V26Z" fill="white"/>
</mask>
<g mask="url(#mask0_85_904)">
<path d="M44.1302 26.9062V42L72.9896 70.8594L55.4167 88.4375L44.1302 99.724V114.818L88.0885 70.8594L77.0208 59.7917L44.1302 26.9062Z" fill="#7B7979"/>
</g>
<mask id="mask1_85_904" style="mask-type:luminance" maskUnits="userSpaceOnUse" x="0" y="59" width="45" height="57">
<path d="M0.109375 59.3334H44.3333V115.083H0.109375V59.3334Z" fill="white"/>
</mask>
<g mask="url(#mask1_85_904)">
<path d="M32.849 88.4375L15.2708 70.8594L18.9792 67.1563L11.4323 59.6042L11.2448 59.7917L0.171875 70.8594L44.1302 114.818V99.724L32.849 88.4375Z" fill="#444142"/>
</g>
<mask id="mask2_85_904" style="mask-type:luminance" maskUnits="userSpaceOnUse" x="43" y="0" width="46" height="56">
<path d="M43 0.083374H88.1094V55.3334H43V0.083374Z" fill="white"/>
</mask>
<g mask="url(#mask2_85_904)">
<path d="M55.4115 26.4636L72.9896 44.0417L69.2865 47.75L76.8333 55.2969L77.0208 55.1146L88.0885 44.0417L44.1302 0.083374V15.1875L55.4115 26.4636Z" fill="#6AC23F"/>
</g>
<mask id="mask3_85_904" style="mask-type:luminance" maskUnits="userSpaceOnUse" x="0" y="0" width="45" height="89">
<path d="M0.109375 0.083374H44.3333V88.6667H0.109375V0.083374Z" fill="white"/>
</mask>
<g mask="url(#mask3_85_904)">
<path d="M15.2708 44.0417L44.1302 15.1823V15.1875V0.083374L0.171875 44.0417L44.1302 88V72.9011L15.2708 44.0417Z" fill="#498536"/>
</g>
<path d="M115.474 101.054C115.057 101.054 114.651 100.997 114.266 100.888C113.875 100.778 113.516 100.612 113.182 100.388C112.86 100.153 112.589 99.867 112.37 99.5336C112.146 99.1899 111.995 98.7836 111.912 98.3253L113.578 97.9086C113.62 98.2993 113.729 98.617 113.912 98.867C114.089 99.1066 114.313 99.2836 114.578 99.4086C114.854 99.5232 115.162 99.5753 115.495 99.5753C115.828 99.5753 116.104 99.5284 116.328 99.4295C116.563 99.3201 116.735 99.1743 116.849 98.992C116.974 98.8149 117.037 98.6118 117.037 98.3878C117.037 98.1534 116.964 97.9503 116.828 97.7836C116.703 97.6066 116.537 97.4503 116.328 97.3253C116.12 97.2003 115.875 97.0909 115.599 96.992C115.334 96.8826 115.057 96.7732 114.766 96.6586C114.485 96.5493 114.214 96.4243 113.953 96.2836C113.688 96.1326 113.443 95.9607 113.224 95.7628C113.016 95.5701 112.849 95.3409 112.724 95.0753C112.599 94.7993 112.537 94.4711 112.537 94.0961C112.537 93.6795 112.61 93.3149 112.766 92.992C112.917 92.6743 113.125 92.4086 113.391 92.2003C113.667 91.9816 113.979 91.8149 114.328 91.7003C114.672 91.5909 115.042 91.5336 115.432 91.5336C116 91.5336 116.537 91.6691 117.037 91.9295C117.537 92.1795 117.943 92.5909 118.266 93.1586L116.87 94.0128C116.703 93.6951 116.485 93.4503 116.224 93.2836C115.974 93.1066 115.688 93.0128 115.37 93.0128C115.146 93.0128 114.943 93.0545 114.766 93.1378C114.599 93.2211 114.459 93.3409 114.349 93.492C114.25 93.6326 114.203 93.8045 114.203 94.0128C114.203 94.2211 114.266 94.4086 114.391 94.5753C114.516 94.7316 114.682 94.8618 114.891 94.9711C115.11 95.0857 115.354 95.1951 115.62 95.3045C115.88 95.4034 116.151 95.5076 116.432 95.617C116.724 95.7316 117 95.8618 117.266 96.0128C117.542 96.1534 117.787 96.3253 117.995 96.5336C118.203 96.7316 118.37 96.9659 118.495 97.242C118.63 97.5232 118.703 97.8566 118.703 98.242C118.703 98.6899 118.61 99.0857 118.432 99.4295C118.266 99.7784 118.037 100.075 117.745 100.325C117.453 100.565 117.11 100.742 116.724 100.867C116.334 100.992 115.917 101.054 115.474 101.054Z" fill="#708089"/>
<path d="M124.883 101.075C124.05 101.075 123.367 100.924 122.841 100.617C122.326 100.315 121.945 99.8826 121.695 99.3253C121.445 98.7576 121.32 98.0909 121.32 97.3253V91.6586H122.987V97.1378C122.987 97.6378 123.039 98.0649 123.154 98.4086C123.263 98.7576 123.451 99.0232 123.716 99.2003C123.992 99.3826 124.383 99.4711 124.883 99.4711C125.383 99.4711 125.763 99.3826 126.029 99.2003C126.305 99.0232 126.492 98.7576 126.591 98.4086C126.701 98.0649 126.758 97.6378 126.758 97.1378V91.6586H128.425V97.2628C128.425 98.0441 128.3 98.7211 128.05 99.3045C127.81 99.8774 127.43 100.315 126.904 100.617C126.388 100.924 125.716 101.075 124.883 101.075Z" fill="#708089"/>
<path d="M134.513 101.054C134.096 101.054 133.69 100.997 133.305 100.888C132.914 100.778 132.555 100.612 132.221 100.388C131.898 100.153 131.628 99.867 131.409 99.5336C131.185 99.1899 131.034 98.7836 130.95 98.3253L132.617 97.9086C132.659 98.2993 132.768 98.617 132.95 98.867C133.128 99.1066 133.351 99.2836 133.617 99.4086C133.893 99.5232 134.2 99.5753 134.534 99.5753C134.867 99.5753 135.143 99.5284 135.367 99.4295C135.601 99.3201 135.773 99.1743 135.888 98.992C136.013 98.8149 136.075 98.6118 136.075 98.3878C136.075 98.1534 136.003 97.9503 135.867 97.7836C135.742 97.6066 135.575 97.4503 135.367 97.3253C135.159 97.2003 134.914 97.0909 134.638 96.992C134.372 96.8826 134.096 96.7732 133.805 96.6586C133.523 96.5493 133.253 96.4243 132.992 96.2836C132.726 96.1326 132.482 95.9607 132.263 95.7628C132.055 95.5701 131.888 95.3409 131.763 95.0753C131.638 94.7993 131.575 94.4711 131.575 94.0961C131.575 93.6795 131.648 93.3149 131.805 92.992C131.956 92.6743 132.164 92.4086 132.43 92.2003C132.706 91.9816 133.018 91.8149 133.367 91.7003C133.711 91.5909 134.081 91.5336 134.471 91.5336C135.039 91.5336 135.575 91.6691 136.075 91.9295C136.575 92.1795 136.982 92.5909 137.305 93.1586L135.909 94.0128C135.742 93.6951 135.523 93.4503 135.263 93.2836C135.013 93.1066 134.726 93.0128 134.409 93.0128C134.185 93.0128 133.982 93.0545 133.805 93.1378C133.638 93.2211 133.497 93.3409 133.388 93.492C133.289 93.6326 133.242 93.8045 133.242 94.0128C133.242 94.2211 133.305 94.4086 133.43 94.5753C133.555 94.7316 133.721 94.8618 133.93 94.9711C134.148 95.0857 134.393 95.1951 134.659 95.3045C134.919 95.4034 135.19 95.5076 135.471 95.617C135.763 95.7316 136.039 95.8618 136.305 96.0128C136.581 96.1534 136.825 96.3253 137.034 96.5336C137.242 96.7316 137.409 96.9659 137.534 97.242C137.669 97.5232 137.742 97.8566 137.742 98.242C137.742 98.6899 137.648 99.0857 137.471 99.4295C137.305 99.7784 137.075 100.075 136.784 100.325C136.492 100.565 136.148 100.742 135.763 100.867C135.372 100.992 134.956 101.054 134.513 101.054Z" fill="#708089"/>
<path d="M142.422 100.95V93.1586H139.505V91.6586H147.005V93.1586H144.088V100.95H142.422Z" fill="#708089"/>
<path d="M148.467 100.95L152.175 91.6586H153.425L157.134 100.95H155.321L154.613 98.9295H151.009L150.28 100.95H148.467ZM151.571 97.5128H154.05L152.821 94.117L151.571 97.5128Z" fill="#708089"/>
<path d="M159.646 100.95V91.6586H161.333V100.95H159.646Z" fill="#708089"/>
<path d="M164.958 100.95V91.6586H166.624L170.52 98.1586V91.6586H172.124V100.95H170.458L166.562 94.4295V100.95H164.958Z" fill="#708089"/>
<path d="M174.657 100.95L178.365 91.6586H179.615L183.324 100.95H181.511L180.803 98.9295H177.199L176.47 100.95H174.657ZM177.761 97.5128H180.24L179.011 94.117L177.761 97.5128Z" fill="#708089"/>
<path d="M185.836 100.95V91.6586H189.065C189.341 91.6586 189.617 91.6899 189.898 91.742C190.19 91.7993 190.461 91.8878 190.711 92.0128C190.971 92.1378 191.2 92.2993 191.398 92.492C191.591 92.6899 191.742 92.9243 191.857 93.2003C191.982 93.4816 192.044 93.7993 192.044 94.1586C192.044 94.4503 191.987 94.7159 191.877 94.9503C191.778 95.1899 191.653 95.3982 191.502 95.5753C191.346 95.7576 191.18 95.8982 191.002 95.992C191.211 96.0753 191.403 96.2003 191.586 96.367C191.763 96.5232 191.924 96.7003 192.065 96.9086C192.2 97.117 192.305 97.3409 192.377 97.5753C192.461 97.7993 192.502 98.0284 192.502 98.2628C192.502 98.6951 192.419 99.0753 192.252 99.4086C192.086 99.742 191.857 100.028 191.565 100.263C191.284 100.487 190.966 100.659 190.607 100.784C190.242 100.898 189.862 100.95 189.461 100.95H185.836ZM187.523 95.4086H189.232C189.44 95.4086 189.638 95.3826 189.836 95.3253C190.028 95.2576 190.19 95.1378 190.315 94.9711C190.44 94.8045 190.502 94.5701 190.502 94.2628C190.502 94.0284 190.44 93.8253 190.315 93.6586C190.19 93.492 190.013 93.3774 189.794 93.3045C189.586 93.2211 189.346 93.1795 189.086 93.1795H187.523V95.4086ZM187.523 99.367H189.482C189.909 99.367 190.242 99.2628 190.482 99.0545C190.732 98.8357 190.857 98.5076 190.857 98.0753C190.857 97.8566 190.794 97.6534 190.669 97.4711C190.555 97.2784 190.388 97.1274 190.169 97.0128C189.961 96.9034 189.711 96.8461 189.419 96.8461H187.523V99.367Z" fill="#708089"/>
<path d="M195.457 100.95V91.6586H197.144V99.367H201.103V100.95H195.457Z" fill="#708089"/>
<path d="M203.692 100.95V91.6586H209.88V93.2003H205.38V95.5336H209.567V97.0753H205.38V99.367H209.88V100.95H203.692Z" fill="#708089"/>
<path d="M220.665 100.429L219.519 101.45L218.31 100.054C217.935 100.377 217.503 100.633 217.019 100.825C216.545 101.002 216.04 101.096 215.498 101.096C215.081 101.096 214.685 101.044 214.31 100.95C213.946 100.857 213.628 100.711 213.352 100.513C213.071 100.304 212.852 100.065 212.685 99.7836C212.529 99.4919 212.456 99.1586 212.456 98.7836C212.456 98.4399 212.508 98.1274 212.623 97.8461C212.748 97.5544 212.915 97.2992 213.123 97.0753C213.331 96.8409 213.56 96.6326 213.81 96.4503C214.071 96.2576 214.336 96.0857 214.602 95.9294C214.503 95.8201 214.394 95.6951 214.269 95.5544C214.144 95.4034 214.019 95.2367 213.894 95.0544C213.779 94.8617 213.691 94.6586 213.623 94.4503C213.55 94.2315 213.519 93.9919 213.519 93.7419C213.519 93.3982 213.586 93.0909 213.727 92.8253C213.878 92.5492 214.071 92.3201 214.31 92.1378C214.56 91.9451 214.836 91.7992 215.144 91.7003C215.446 91.6065 215.758 91.5544 216.081 91.5544C216.415 91.5544 216.727 91.6117 217.019 91.7211C217.321 91.8357 217.586 91.9867 217.81 92.1794C218.045 92.3774 218.227 92.6065 218.352 92.8669C218.477 93.1326 218.54 93.419 218.54 93.7211C218.54 94.0961 218.461 94.4294 218.31 94.7211C218.154 95.0128 217.956 95.2836 217.706 95.5336C217.456 95.7732 217.175 95.9919 216.873 96.2003L218.185 97.6586C218.336 97.2419 218.415 96.8149 218.415 96.3669L219.977 96.5336C219.946 96.9659 219.873 97.3826 219.748 97.7836C219.633 98.1742 219.477 98.544 219.269 98.8878L220.665 100.429ZM215.06 93.7628C215.06 93.9294 215.102 94.1065 215.185 94.2836C215.279 94.4659 215.383 94.6378 215.498 94.8044C215.623 94.9607 215.732 95.0961 215.831 95.2211C216.066 95.0857 216.274 94.9399 216.456 94.7836C216.649 94.6326 216.795 94.4711 216.894 94.3044C217.003 94.1378 217.06 93.9503 217.06 93.7419C217.06 93.5753 217.024 93.4242 216.956 93.2836C216.883 93.1482 216.774 93.0336 216.623 92.9503C216.482 92.8565 216.31 92.8044 216.102 92.8044C215.904 92.8044 215.732 92.8461 215.581 92.9294C215.425 93.0024 215.3 93.1065 215.206 93.2419C215.107 93.3826 215.06 93.5544 215.06 93.7628ZM215.456 99.7419C215.842 99.7419 216.196 99.6742 216.519 99.5336C216.836 99.3982 217.123 99.2107 217.373 98.9711L215.602 96.9711C215.31 97.1534 215.04 97.3357 214.79 97.5128C214.55 97.6951 214.357 97.8982 214.206 98.1169C214.066 98.3253 213.998 98.5544 213.998 98.8044C213.998 99.1274 214.128 99.3617 214.394 99.5128C214.67 99.669 215.024 99.7419 215.456 99.7419Z" fill="#708089"/>
<path d="M226.12 101.054C225.704 101.054 225.297 100.997 224.912 100.888C224.521 100.778 224.162 100.612 223.829 100.388C223.506 100.153 223.235 99.867 223.016 99.5336C222.792 99.1899 222.641 98.7836 222.558 98.3253L224.224 97.9086C224.266 98.2993 224.375 98.617 224.558 98.867C224.735 99.1066 224.959 99.2836 225.224 99.4086C225.5 99.5232 225.808 99.5753 226.141 99.5753C226.474 99.5753 226.75 99.5284 226.974 99.4295C227.209 99.3201 227.381 99.1743 227.495 98.992C227.62 98.8149 227.683 98.6118 227.683 98.3878C227.683 98.1534 227.61 97.9503 227.474 97.7836C227.349 97.6066 227.183 97.4503 226.974 97.3253C226.766 97.2003 226.521 97.0909 226.245 96.992C225.98 96.8826 225.704 96.7732 225.412 96.6586C225.131 96.5493 224.86 96.4243 224.599 96.2836C224.334 96.1326 224.089 95.9607 223.87 95.7628C223.662 95.5701 223.495 95.3409 223.37 95.0753C223.245 94.7993 223.183 94.4711 223.183 94.0961C223.183 93.6795 223.256 93.3149 223.412 92.992C223.563 92.6743 223.771 92.4086 224.037 92.2003C224.313 91.9816 224.625 91.8149 224.974 91.7003C225.318 91.5909 225.688 91.5336 226.079 91.5336C226.646 91.5336 227.183 91.6691 227.683 91.9295C228.183 92.1795 228.589 92.5909 228.912 93.1586L227.516 94.0128C227.349 93.6951 227.131 93.4503 226.87 93.2836C226.62 93.1066 226.334 93.0128 226.016 93.0128C225.792 93.0128 225.589 93.0545 225.412 93.1378C225.245 93.2211 225.105 93.3409 224.995 93.492C224.896 93.6326 224.849 93.8045 224.849 94.0128C224.849 94.2211 224.912 94.4086 225.037 94.5753C225.162 94.7316 225.329 94.8618 225.537 94.9711C225.756 95.0857 226 95.1951 226.266 95.3045C226.526 95.4034 226.797 95.5076 227.079 95.617C227.37 95.7316 227.646 95.8618 227.912 96.0128C228.188 96.1534 228.433 96.3253 228.641 96.5336C228.849 96.7316 229.016 96.9659 229.141 97.242C229.276 97.5232 229.349 97.8566 229.349 98.242C229.349 98.6899 229.256 99.0857 229.079 99.4295C228.912 99.7784 228.683 100.075 228.391 100.325C228.099 100.565 227.756 100.742 227.37 100.867C226.98 100.992 226.563 101.054 226.12 101.054Z" fill="#708089"/>
<path d="M232.175 100.95V91.6586H238.362V93.2003H233.862V95.5336H238.05V97.0753H233.862V99.367H238.362V100.95H232.175Z" fill="#708089"/>
<path d="M245.46 101.075C244.845 101.075 244.298 100.992 243.814 100.825C243.324 100.659 242.902 100.429 242.543 100.138C242.194 99.8357 241.902 99.4868 241.668 99.0961C241.428 98.6951 241.251 98.2576 241.126 97.7836C241.012 97.3149 240.96 96.8201 240.96 96.3045C240.96 95.7941 241.012 95.2993 241.126 94.8253C241.251 94.3566 241.423 93.9243 241.647 93.5336C241.882 93.1326 242.173 92.7784 242.522 92.4711C242.882 92.1691 243.303 91.9295 243.793 91.7628C244.277 91.5961 244.824 91.5128 245.439 91.5128C246.048 91.5128 246.611 91.617 247.126 91.8253C247.652 92.0232 248.116 92.3201 248.522 92.7211C248.923 93.1118 249.251 93.5961 249.501 94.1795L247.939 94.8045C247.824 94.3878 247.647 94.0649 247.397 93.8253C247.158 93.5753 246.866 93.3982 246.522 93.2836C246.189 93.1586 245.819 93.0961 245.418 93.0961C244.928 93.0961 244.507 93.1795 244.147 93.3461C243.798 93.5128 243.507 93.742 243.272 94.0336C243.048 94.3149 242.882 94.6482 242.772 95.0336C242.658 95.4086 242.605 95.8149 242.605 96.242C242.605 96.7003 242.658 97.1326 242.772 97.5336C242.882 97.9243 243.048 98.2732 243.272 98.5753C243.507 98.867 243.803 99.0961 244.168 99.2628C244.527 99.4191 244.96 99.492 245.46 99.492C246.053 99.492 246.553 99.3618 246.96 99.0961C247.376 98.8357 247.71 98.3982 247.96 97.7836L249.522 98.4086C249.272 98.992 248.944 99.4868 248.543 99.8878C248.137 100.278 247.673 100.575 247.147 100.784C246.632 100.976 246.069 101.075 245.46 101.075Z" fill="#708089"/>
<path d="M255.619 101.075C254.785 101.075 254.103 100.924 253.577 100.617C253.061 100.315 252.681 99.8826 252.431 99.3253C252.181 98.7576 252.056 98.0909 252.056 97.3253V91.6586H253.723V97.1378C253.723 97.6378 253.775 98.0649 253.89 98.4086C253.999 98.7576 254.186 99.0232 254.452 99.2003C254.728 99.3826 255.119 99.4711 255.619 99.4711C256.119 99.4711 256.499 99.3826 256.765 99.2003C257.041 99.0232 257.228 98.7576 257.327 98.4086C257.436 98.0649 257.494 97.6378 257.494 97.1378V91.6586H259.16V97.2628C259.16 98.0441 259.035 98.7211 258.785 99.3045C258.546 99.8774 258.166 100.315 257.64 100.617C257.124 100.924 256.452 101.075 255.619 101.075Z" fill="#708089"/>
<path d="M262.582 100.971V91.6586H265.603C266.03 91.6586 266.441 91.7211 266.832 91.8461C267.217 91.9711 267.561 92.1534 267.853 92.3878C268.145 92.6118 268.374 92.8982 268.54 93.242C268.717 93.5753 268.811 93.9659 268.811 94.4086C268.811 94.7993 268.728 95.1534 268.561 95.4711C268.405 95.7941 268.191 96.0701 267.915 96.3045C267.65 96.5284 267.342 96.7003 266.999 96.8253L269.582 100.971H267.665L265.374 96.9711H264.27V100.971H262.582ZM264.27 95.617H265.749C266.191 95.6066 266.54 95.492 266.79 95.2836C267.04 95.0649 267.165 94.7784 267.165 94.4295C267.165 94.0441 267.025 93.7368 266.749 93.5128C266.467 93.2784 266.087 93.1586 265.603 93.1586H264.27V95.617Z" fill="#708089"/>
<path d="M272.164 100.95V91.6586H278.351V93.2003H273.851V95.5336H278.039V97.0753H273.851V99.367H278.351V100.95H272.164Z" fill="#708089"/>
<path d="M289.136 100.429L287.99 101.45L286.782 100.054C286.407 100.377 285.975 100.633 285.49 100.825C285.016 101.002 284.511 101.096 283.97 101.096C283.553 101.096 283.157 101.044 282.782 100.95C282.417 100.857 282.1 100.711 281.824 100.513C281.542 100.304 281.324 100.065 281.157 99.7836C281.001 99.4919 280.928 99.1586 280.928 98.7836C280.928 98.4399 280.98 98.1274 281.095 97.8461C281.22 97.5544 281.386 97.2992 281.595 97.0753C281.803 96.8409 282.032 96.6326 282.282 96.4503C282.542 96.2576 282.808 96.0857 283.074 95.9294C282.975 95.8201 282.865 95.6951 282.74 95.5544C282.615 95.4034 282.49 95.2367 282.365 95.0544C282.251 94.8617 282.162 94.6586 282.095 94.4503C282.022 94.2315 281.99 93.9919 281.99 93.7419C281.99 93.3982 282.058 93.0909 282.199 92.8253C282.35 92.5492 282.542 92.3201 282.782 92.1378C283.032 91.9451 283.308 91.7992 283.615 91.7003C283.917 91.6065 284.23 91.5544 284.553 91.5544C284.886 91.5544 285.199 91.6117 285.49 91.7211C285.792 91.8357 286.058 91.9867 286.282 92.1794C286.516 92.3774 286.699 92.6065 286.824 92.8669C286.949 93.1326 287.011 93.419 287.011 93.7211C287.011 94.0961 286.933 94.4294 286.782 94.7211C286.626 95.0128 286.428 95.2836 286.178 95.5336C285.928 95.7732 285.647 95.9919 285.345 96.2003L286.657 97.6586C286.808 97.2419 286.886 96.8149 286.886 96.3669L288.449 96.5336C288.417 96.9659 288.345 97.3826 288.22 97.7836C288.105 98.1742 287.949 98.544 287.74 98.8878L289.136 100.429ZM283.532 93.7628C283.532 93.9294 283.574 94.1065 283.657 94.2836C283.751 94.4659 283.855 94.6378 283.97 94.8044C284.095 94.9607 284.204 95.0961 284.303 95.2211C284.537 95.0857 284.746 94.9399 284.928 94.7836C285.121 94.6326 285.266 94.4711 285.365 94.3044C285.475 94.1378 285.532 93.9503 285.532 93.7419C285.532 93.5753 285.496 93.4242 285.428 93.2836C285.355 93.1482 285.246 93.0336 285.095 92.9503C284.954 92.8565 284.782 92.8044 284.574 92.8044C284.376 92.8044 284.204 92.8461 284.053 92.9294C283.897 93.0024 283.772 93.1065 283.678 93.2419C283.579 93.3826 283.532 93.5544 283.532 93.7628ZM283.928 99.7419C284.313 99.7419 284.667 99.6742 284.99 99.5336C285.308 99.3982 285.595 99.2107 285.845 98.9711L284.074 96.9711C283.782 97.1534 283.511 97.3357 283.261 97.5128C283.022 97.6951 282.829 97.8982 282.678 98.1169C282.537 98.3253 282.47 98.5544 282.47 98.8044C282.47 99.1274 282.6 99.3617 282.865 99.5128C283.141 99.669 283.496 99.7419 283.928 99.7419Z" fill="#708089"/>
<path d="M294.592 101.054C294.175 101.054 293.769 100.997 293.384 100.888C292.993 100.778 292.634 100.612 292.3 100.388C291.977 100.153 291.706 99.867 291.488 99.5336C291.264 99.1899 291.113 98.7836 291.029 98.3253L292.696 97.9086C292.738 98.2993 292.847 98.617 293.029 98.867C293.206 99.1066 293.43 99.2836 293.696 99.4086C293.972 99.5232 294.279 99.5753 294.613 99.5753C294.946 99.5753 295.222 99.5284 295.446 99.4295C295.68 99.3201 295.852 99.1743 295.967 98.992C296.092 98.8149 296.154 98.6118 296.154 98.3878C296.154 98.1534 296.081 97.9503 295.946 97.7836C295.821 97.6066 295.654 97.4503 295.446 97.3253C295.238 97.2003 294.993 97.0909 294.717 96.992C294.451 96.8826 294.175 96.7732 293.884 96.6586C293.602 96.5493 293.331 96.4243 293.071 96.2836C292.805 96.1326 292.561 95.9607 292.342 95.7628C292.134 95.5701 291.967 95.3409 291.842 95.0753C291.717 94.7993 291.654 94.4711 291.654 94.0961C291.654 93.6795 291.727 93.3149 291.884 92.992C292.035 92.6743 292.243 92.4086 292.509 92.2003C292.785 91.9816 293.097 91.8149 293.446 91.7003C293.79 91.5909 294.16 91.5336 294.55 91.5336C295.118 91.5336 295.654 91.6691 296.154 91.9295C296.654 92.1795 297.061 92.5909 297.384 93.1586L295.988 94.0128C295.821 93.6951 295.602 93.4503 295.342 93.2836C295.092 93.1066 294.805 93.0128 294.488 93.0128C294.264 93.0128 294.061 93.0545 293.884 93.1378C293.717 93.2211 293.576 93.3409 293.467 93.492C293.368 93.6326 293.321 93.8045 293.321 94.0128C293.321 94.2211 293.384 94.4086 293.509 94.5753C293.634 94.7316 293.8 94.8618 294.009 94.9711C294.227 95.0857 294.472 95.1951 294.738 95.3045C294.998 95.4034 295.269 95.5076 295.55 95.617C295.842 95.7316 296.118 95.8618 296.384 96.0128C296.66 96.1534 296.904 96.3253 297.113 96.5336C297.321 96.7316 297.488 96.9659 297.613 97.242C297.748 97.5232 297.821 97.8566 297.821 98.242C297.821 98.6899 297.727 99.0857 297.55 99.4295C297.384 99.7784 297.154 100.075 296.863 100.325C296.571 100.565 296.227 100.742 295.842 100.867C295.451 100.992 295.035 101.054 294.592 101.054Z" fill="#708089"/>
<path d="M299.542 100.95L303.251 91.6586H304.501L308.209 100.95H306.396L305.688 98.9295H302.084L301.355 100.95H299.542ZM302.646 97.5128H305.126L303.896 94.117L302.646 97.5128Z" fill="#708089"/>
<path d="M313.325 100.95L309.617 91.6586H311.45L313.971 98.242L316.45 91.6586H318.283L314.575 100.95H313.325Z" fill="#708089"/>
<path d="M320.795 100.95V91.6586H326.983V93.2003H322.483V95.5336H326.67V97.0753H322.483V99.367H326.983V100.95H320.795Z" fill="#708089"/>
<path d="M337.768 100.429L336.622 101.45L335.414 100.054C335.039 100.377 334.606 100.633 334.122 100.825C333.648 101.002 333.143 101.096 332.601 101.096C332.184 101.096 331.789 101.044 331.414 100.95C331.049 100.857 330.731 100.711 330.455 100.513C330.174 100.304 329.955 100.065 329.789 99.7836C329.632 99.4919 329.559 99.1586 329.559 98.7836C329.559 98.4399 329.612 98.1274 329.726 97.8461C329.851 97.5544 330.018 97.2992 330.226 97.0753C330.434 96.8409 330.664 96.6326 330.914 96.4503C331.174 96.2576 331.44 96.0857 331.705 95.9294C331.606 95.8201 331.497 95.6951 331.372 95.5544C331.247 95.4034 331.122 95.2367 330.997 95.0544C330.882 94.8617 330.794 94.6586 330.726 94.4503C330.653 94.2315 330.622 93.9919 330.622 93.7419C330.622 93.3982 330.69 93.0909 330.83 92.8253C330.981 92.5492 331.174 92.3201 331.414 92.1378C331.664 91.9451 331.94 91.7992 332.247 91.7003C332.549 91.6065 332.862 91.5544 333.184 91.5544C333.518 91.5544 333.83 91.6117 334.122 91.7211C334.424 91.8357 334.69 91.9867 334.914 92.1794C335.148 92.3774 335.33 92.6065 335.455 92.8669C335.58 93.1326 335.643 93.419 335.643 93.7211C335.643 94.0961 335.565 94.4294 335.414 94.7211C335.257 95.0128 335.059 95.2836 334.809 95.5336C334.559 95.7732 334.278 95.9919 333.976 96.2003L335.289 97.6586C335.44 97.2419 335.518 96.8149 335.518 96.3669L337.08 96.5336C337.049 96.9659 336.976 97.3826 336.851 97.7836C336.737 98.1742 336.58 98.544 336.372 98.8878L337.768 100.429ZM332.164 93.7628C332.164 93.9294 332.205 94.1065 332.289 94.2836C332.382 94.4659 332.487 94.6378 332.601 94.8044C332.726 94.9607 332.835 95.0961 332.934 95.2211C333.169 95.0857 333.377 94.9399 333.559 94.7836C333.752 94.6326 333.898 94.4711 333.997 94.3044C334.106 94.1378 334.164 93.9503 334.164 93.7419C334.164 93.5753 334.127 93.4242 334.059 93.2836C333.987 93.1482 333.877 93.0336 333.726 92.9503C333.585 92.8565 333.414 92.8044 333.205 92.8044C333.007 92.8044 332.835 92.8461 332.684 92.9294C332.528 93.0024 332.403 93.1065 332.309 93.2419C332.21 93.3826 332.164 93.5544 332.164 93.7628ZM332.559 99.7419C332.945 99.7419 333.299 99.6742 333.622 99.5336C333.94 99.3982 334.226 99.2107 334.476 98.9711L332.705 96.9711C332.414 97.1534 332.143 97.3357 331.893 97.5128C331.653 97.6951 331.46 97.8982 331.309 98.1169C331.169 98.3253 331.101 98.5544 331.101 98.8044C331.101 99.1274 331.231 99.3617 331.497 99.5128C331.773 99.669 332.127 99.7419 332.559 99.7419Z" fill="#708089"/>
<path d="M343.223 101.054C342.807 101.054 342.401 100.997 342.015 100.888C341.624 100.778 341.265 100.612 340.932 100.388C340.609 100.153 340.338 99.867 340.119 99.5336C339.895 99.1899 339.744 98.7836 339.661 98.3253L341.328 97.9086C341.369 98.2993 341.479 98.617 341.661 98.867C341.838 99.1066 342.062 99.2836 342.328 99.4086C342.604 99.5232 342.911 99.5753 343.244 99.5753C343.578 99.5753 343.854 99.5284 344.078 99.4295C344.312 99.3201 344.484 99.1743 344.598 98.992C344.723 98.8149 344.786 98.6118 344.786 98.3878C344.786 98.1534 344.713 97.9503 344.578 97.7836C344.453 97.6066 344.286 97.4503 344.078 97.3253C343.869 97.2003 343.624 97.0909 343.348 96.992C343.083 96.8826 342.807 96.7732 342.515 96.6586C342.234 96.5493 341.963 96.4243 341.703 96.2836C341.437 96.1326 341.192 95.9607 340.973 95.7628C340.765 95.5701 340.598 95.3409 340.473 95.0753C340.348 94.7993 340.286 94.4711 340.286 94.0961C340.286 93.6795 340.359 93.3149 340.515 92.992C340.666 92.6743 340.874 92.4086 341.14 92.2003C341.416 91.9816 341.729 91.8149 342.078 91.7003C342.421 91.5909 342.791 91.5336 343.182 91.5336C343.749 91.5336 344.286 91.6691 344.786 91.9295C345.286 92.1795 345.692 92.5909 346.015 93.1586L344.619 94.0128C344.453 93.6951 344.234 93.4503 343.973 93.2836C343.723 93.1066 343.437 93.0128 343.119 93.0128C342.895 93.0128 342.692 93.0545 342.515 93.1378C342.348 93.2211 342.208 93.3409 342.098 93.492C341.999 93.6326 341.953 93.8045 341.953 94.0128C341.953 94.2211 342.015 94.4086 342.14 94.5753C342.265 94.7316 342.432 94.8618 342.64 94.9711C342.859 95.0857 343.104 95.1951 343.369 95.3045C343.63 95.4034 343.901 95.5076 344.182 95.617C344.473 95.7316 344.749 95.8618 345.015 96.0128C345.291 96.1534 345.536 96.3253 345.744 96.5336C345.953 96.7316 346.119 96.9659 346.244 97.242C346.38 97.5232 346.453 97.8566 346.453 98.242C346.453 98.6899 346.359 99.0857 346.182 99.4295C346.015 99.7784 345.786 100.075 345.494 100.325C345.203 100.565 344.859 100.742 344.473 100.867C344.083 100.992 343.666 101.054 343.223 101.054Z" fill="#708089"/>
<path d="M349.278 100.95V91.6586H351.528L354.007 98.2628L356.466 91.6586H358.716V100.95H357.111V94.0128L354.799 100.138H353.195L350.882 94.0128V100.95H349.278Z" fill="#708089"/>
<path d="M361.237 100.95L364.945 91.6586H366.195L369.904 100.95H368.091L367.383 98.9295H363.779L363.05 100.95H361.237ZM364.341 97.5128H366.82L365.591 94.117L364.341 97.5128Z" fill="#708089"/>
<path d="M372.416 100.971V91.6586H375.437C375.864 91.6586 376.275 91.7211 376.666 91.8461C377.051 91.9711 377.395 92.1534 377.687 92.3878C377.978 92.6118 378.207 92.8982 378.374 93.242C378.551 93.5753 378.645 93.9659 378.645 94.4086C378.645 94.7993 378.562 95.1534 378.395 95.4711C378.239 95.7941 378.025 96.0701 377.749 96.3045C377.483 96.5284 377.176 96.7003 376.832 96.8253L379.416 100.971H377.499L375.207 96.9711H374.103V100.971H372.416ZM374.103 95.617H375.582C376.025 95.6066 376.374 95.492 376.624 95.2836C376.874 95.0649 376.999 94.7784 376.999 94.4295C376.999 94.0441 376.858 93.7368 376.582 93.5128C376.301 93.2784 375.921 93.1586 375.437 93.1586H374.103V95.617Z" fill="#708089"/>
<path d="M383.852 100.95V93.1586H380.935V91.6586H388.435V93.1586H385.518V100.95H383.852Z" fill="#708089"/>
<path d="M109.631 64.1617L102.131 62.3909C99.1412 61.6825 97.1099 60.5992 96.0266 59.1409C94.9432 57.6825 94.4016 55.5992 94.4016 52.8909C94.4016 48.5992 95.5318 45.4482 97.7974 43.4325C100.058 41.4065 103.568 40.3909 108.318 40.3909C110.287 40.3909 112.037 40.469 113.568 40.62C115.11 40.7763 116.527 41.0523 117.818 41.4534V49.6409C114.829 49.1305 112.777 48.8388 111.652 48.7659C110.537 48.6825 109.37 48.6409 108.152 48.6409C106.495 48.6409 105.297 48.9221 104.547 49.4742C103.797 50.0159 103.422 50.943 103.422 52.245C103.422 52.87 103.537 53.3492 103.777 53.6825C104.011 54.0159 104.469 54.2607 105.152 54.4117L112.214 56.0784C114.256 56.5523 115.724 57.0159 116.631 57.4742C117.547 57.9221 118.277 58.495 118.818 59.2034C119.454 59.9534 119.922 60.9221 120.214 62.0992C120.506 63.2659 120.652 64.6982 120.652 66.3909C120.652 70.6825 119.511 73.7815 117.235 75.6825C114.954 77.5888 111.412 78.5367 106.61 78.5367C104.178 78.5367 101.86 78.3909 99.6516 78.0992C97.4537 77.8075 95.7453 77.4482 94.5266 77.0159V68.3492C96.0943 68.8492 97.9641 69.2555 100.131 69.5575C102.297 69.8492 104.454 69.995 106.61 69.995C108.344 69.995 109.547 69.7815 110.214 69.3492C110.881 68.9221 111.214 68.0523 111.214 66.745C111.214 65.9273 111.099 65.3284 110.881 64.9534C110.672 64.5784 110.256 64.318 109.631 64.1617Z" fill="#708089"/>
<path d="M158.341 59.4325C158.341 66.1565 156.971 71.0263 154.237 74.0367C151.497 77.0367 147.07 78.5367 140.945 78.5367C134.529 78.5367 130.018 77.1305 127.424 74.3075C124.826 71.4742 123.529 66.5159 123.529 59.4325C123.529 52.7138 124.893 47.8596 127.633 44.87C130.367 41.8857 134.805 40.3909 140.945 40.3909C147.346 40.3909 151.846 41.8075 154.445 44.6409C157.039 47.4638 158.341 52.3909 158.341 59.4325ZM133.924 67.3284C134.424 68.318 135.174 69.0107 136.174 69.4117C137.185 69.8023 138.779 69.995 140.945 69.995C143.096 69.995 144.674 69.8023 145.674 69.4117C146.685 69.0107 147.445 68.318 147.945 67.3284C148.346 66.5523 148.633 65.5367 148.799 64.2867C148.977 63.0263 149.07 61.4065 149.07 59.4325C149.07 57.4325 148.977 55.7971 148.799 54.5159C148.633 53.2398 148.346 52.2034 147.945 51.4117C147.471 50.3857 146.737 49.6721 145.737 49.2659C144.737 48.8492 143.138 48.6409 140.945 48.6409C138.737 48.6409 137.133 48.8492 136.133 49.2659C135.133 49.6721 134.393 50.3857 133.924 51.4117C133.518 52.2034 133.227 53.2398 133.049 54.5159C132.883 55.7971 132.799 57.4325 132.799 59.4325C132.799 61.4065 132.883 63.0263 133.049 64.2867C133.227 65.5367 133.518 66.5523 133.924 67.3284Z" fill="#708089"/>
<path d="M186.692 69.4116V77.9533H163.108V40.9741H172.254V69.4116H186.692Z" fill="#708089"/>
<path d="M212.938 62.3908V40.9741H222.084V62.3908C222.084 67.7658 220.761 71.8023 218.126 74.495C215.485 77.1929 211.532 78.5366 206.272 78.5366C200.73 78.5366 196.688 77.2606 194.147 74.7033C191.616 72.1512 190.355 68.047 190.355 62.3908V40.9741H199.501V62.3908C199.501 65.3804 199.959 67.3908 200.876 68.4325C201.803 69.4741 203.605 69.995 206.272 69.995C208.907 69.995 210.678 69.4741 211.584 68.4325C212.485 67.3908 212.938 65.3804 212.938 62.3908Z" fill="#708089"/>
<path d="M254.995 40.9741V49.2241H244.912V77.9533H235.766V49.2241H225.683V40.9741H254.995Z" fill="#6AC23F"/>
<path d="M268.03 40.9741V77.9533H258.884V40.9741H268.03Z" fill="#6AC23F"/>
<path d="M307.602 59.4325C307.602 66.1565 306.232 71.0263 303.498 74.0367C300.758 77.0367 296.331 78.5367 290.206 78.5367C283.789 78.5367 279.279 77.1305 276.685 74.3075C274.086 71.4742 272.789 66.5159 272.789 59.4325C272.789 52.7138 274.154 47.8596 276.894 44.87C279.628 41.8857 284.065 40.3909 290.206 40.3909C296.607 40.3909 301.107 41.8075 303.706 44.6409C306.3 47.4638 307.602 52.3909 307.602 59.4325ZM283.185 67.3284C283.685 68.318 284.435 69.0107 285.435 69.4117C286.446 69.8023 288.039 69.995 290.206 69.995C292.357 69.995 293.935 69.8023 294.935 69.4117C295.946 69.0107 296.706 68.318 297.206 67.3284C297.607 66.5523 297.894 65.5367 298.06 64.2867C298.237 63.0263 298.331 61.4065 298.331 59.4325C298.331 57.4325 298.237 55.7971 298.06 54.5159C297.894 53.2398 297.607 52.2034 297.206 51.4117C296.732 50.3857 295.998 49.6721 294.998 49.2659C293.998 48.8492 292.399 48.6409 290.206 48.6409C287.998 48.6409 286.394 48.8492 285.394 49.2659C284.394 49.6721 283.654 50.3857 283.185 51.4117C282.779 52.2034 282.487 53.2398 282.31 54.5159C282.144 55.7971 282.06 57.4325 282.06 59.4325C282.06 61.4065 282.144 63.0263 282.31 64.2867C282.487 65.5367 282.779 66.5523 283.185 67.3284Z" fill="#6AC23F"/>
<path d="M344.265 40.9741V77.9533H335.536L320.911 56.5991V77.9533H312.369V40.9741H321.036L335.723 63.1408V40.9741H344.265Z" fill="#6AC23F"/>
<path d="M377.251 61.62V69.5783H373.23V77.9533H364.084V69.5783H348.813V61.62L353.001 40.9741H361.792L358.084 61.62H364.084V47.4533H373.23V61.62H377.251Z" fill="#708089"/>
<path d="M395.469 64.1617L387.969 62.3909C384.98 61.6825 382.949 60.5992 381.865 59.1409C380.782 57.6825 380.24 55.5992 380.24 52.8909C380.24 48.5992 381.37 45.4482 383.636 43.4325C385.896 41.4065 389.407 40.3909 394.157 40.3909C396.126 40.3909 397.876 40.469 399.407 40.62C400.949 40.7763 402.365 41.0523 403.657 41.4534V49.6409C400.667 49.1305 398.615 48.8388 397.49 48.7659C396.376 48.6825 395.209 48.6409 393.99 48.6409C392.334 48.6409 391.136 48.9221 390.386 49.4742C389.636 50.0159 389.261 50.943 389.261 52.245C389.261 52.87 389.376 53.3492 389.615 53.6825C389.85 54.0159 390.308 54.2607 390.99 54.4117L398.053 56.0784C400.094 56.5523 401.563 57.0159 402.469 57.4742C403.386 57.9221 404.115 58.495 404.657 59.2034C405.292 59.9534 405.761 60.9221 406.053 62.0992C406.344 63.2659 406.49 64.6982 406.49 66.3909C406.49 70.6825 405.35 73.7815 403.074 75.6825C400.792 77.5888 397.251 78.5367 392.449 78.5367C390.016 78.5367 387.699 78.3909 385.49 78.0992C383.292 77.8075 381.584 77.4482 380.365 77.0159V68.3492C381.933 68.8492 383.803 69.2555 385.969 69.5575C388.136 69.8492 390.292 69.995 392.449 69.995C394.183 69.995 395.386 69.7815 396.053 69.3492C396.719 68.9221 397.053 68.0523 397.053 66.745C397.053 65.9273 396.938 65.3284 396.719 64.9534C396.511 64.5784 396.094 64.318 395.469 64.1617Z" fill="#708089"/>
</svg>
