<svg width="240" height="64" viewBox="0 0 240 64" fill="none" xmlns="http://www.w3.org/2000/svg">
<mask id="mask0_85_904" style="mask-type:luminance" maskUnits="userSpaceOnUse" x="25" y="14" width="27" height="50">
<path d="M25.3303 14.4232H51.971V64H25.3303V14.4232Z" fill="white"/>
</mask>
<g mask="url(#mask0_85_904)">
<path d="M25.9978 14.9275V23.3275L43.0415 39.3884L32.6633 49.171L25.9978 55.4522V63.8522L51.9587 39.3884L45.4223 33.229L25.9978 14.9275Z" fill="#7B7979"/>
</g>
<mask id="mask1_85_904" style="mask-type:luminance" maskUnits="userSpaceOnUse" x="0" y="32" width="27" height="32">
<path d="M0 32.9739H26.1177V64H0V32.9739Z" fill="white"/>
</mask>
<g mask="url(#mask1_85_904)">
<path d="M19.3353 49.171L8.95404 39.3884L11.1441 37.3275L6.68708 33.1246L6.57634 33.229L0.0369112 39.3884L25.9978 63.8522V55.4522L19.3353 49.171Z" fill="#444142"/>
</g>
<mask id="mask2_85_904" style="mask-type:luminance" maskUnits="userSpaceOnUse" x="25" y="0" width="27" height="31">
<path d="M25.3303 0H51.971V30.7478H25.3303V0Z" fill="white"/>
</mask>
<g mask="url(#mask2_85_904)">
<path d="M32.6603 14.6812L43.0415 24.4638L40.8545 26.5275L45.3116 30.7275L45.4223 30.6261L51.9587 24.4638L25.9978 0V8.4058L32.6603 14.6812Z" fill="#6AC23F"/>
</g>
<mask id="mask3_85_904" style="mask-type:luminance" maskUnits="userSpaceOnUse" x="0" y="0" width="27" height="50">
<path d="M0 0H26.1177V49.2986H0V0Z" fill="white"/>
</mask>
<g mask="url(#mask3_85_904)">
<path d="M8.95404 24.4638L25.9978 8.4029V8.4058V0L0.0369112 24.4638L25.9978 48.9275V40.5246L8.95404 24.4638Z" fill="#498536"/>
</g>
<path d="M68.132 56.1926C67.8859 56.1926 67.646 56.1607 67.4184 56.0999C67.1877 56.039 66.9755 55.9462 66.7786 55.8216C66.5879 55.6912 66.428 55.5318 66.2988 55.3462C66.1665 55.1549 66.0773 54.9289 66.0281 54.6738L67.0124 54.4419C67.037 54.6593 67.1016 54.8361 67.2092 54.9752C67.3138 55.1086 67.4461 55.2071 67.603 55.2767C67.766 55.3404 67.9475 55.3694 68.1443 55.3694C68.3412 55.3694 68.5042 55.3433 68.6365 55.2883C68.7749 55.2274 68.8764 55.1462 68.9441 55.0448C69.0179 54.9462 69.0548 54.8332 69.0548 54.7086C69.0548 54.5781 69.0117 54.4651 68.9318 54.3723C68.8579 54.2738 68.7595 54.1868 68.6365 54.1173C68.5134 54.0477 68.3689 53.9868 68.2058 53.9318C68.049 53.8709 67.8859 53.81 67.7137 53.7462C67.5476 53.6854 67.3876 53.6158 67.2338 53.5375C67.077 53.4535 66.9324 53.3578 66.8032 53.2477C66.6802 53.1404 66.5818 53.0129 66.5079 52.8651C66.4341 52.7115 66.3972 52.5289 66.3972 52.3202C66.3972 52.0883 66.4403 51.8854 66.5325 51.7057C66.6217 51.5289 66.7448 51.381 66.9016 51.2651C67.0647 51.1433 67.2492 51.0506 67.4553 50.9868C67.6583 50.926 67.8767 50.8941 68.1074 50.8941C68.4427 50.8941 68.7595 50.9694 69.0548 51.1144C69.3501 51.2535 69.59 51.4825 69.7807 51.7984L68.9564 52.2738C68.8579 52.097 68.7288 51.9607 68.575 51.868C68.4273 51.7694 68.2581 51.7173 68.0705 51.7173C67.9382 51.7173 67.8183 51.7404 67.7137 51.7868C67.6153 51.8332 67.5322 51.8999 67.4676 51.9839C67.4092 52.0622 67.3815 52.1578 67.3815 52.2738C67.3815 52.3897 67.4184 52.4941 67.4922 52.5868C67.566 52.6738 67.6645 52.7462 67.7875 52.8071C67.9167 52.8709 68.0613 52.9318 68.2181 52.9926C68.3719 53.0477 68.5319 53.1057 68.698 53.1665C68.8702 53.2303 69.0333 53.3028 69.1901 53.3868C69.3532 53.4651 69.4977 53.5607 69.6208 53.6767C69.7438 53.7868 69.8422 53.9173 69.9161 54.0709C69.996 54.2274 70.0391 54.4129 70.0391 54.6274C70.0391 54.8767 69.9837 55.097 69.8792 55.2883C69.7807 55.4825 69.6454 55.6477 69.4731 55.7868C69.3009 55.9202 69.0979 56.0187 68.8702 56.0883C68.6396 56.1578 68.3935 56.1926 68.132 56.1926Z" fill="#708089"/>
<path d="M73.6886 56.2042C73.1965 56.2042 72.7936 56.1202 72.4829 55.9491C72.1784 55.781 71.9538 55.5404 71.8062 55.2303C71.6585 54.9144 71.5847 54.5433 71.5847 54.1173V50.9636H72.569V54.0129C72.569 54.2912 72.5998 54.5289 72.6674 54.7202C72.732 54.9144 72.8428 55.0622 72.9996 55.1607C73.1627 55.2622 73.3934 55.3115 73.6886 55.3115C73.9839 55.3115 74.2085 55.2622 74.3654 55.1607C74.5284 55.0622 74.6391 54.9144 74.6976 54.7202C74.7621 54.5289 74.796 54.2912 74.796 54.0129V50.9636H75.7803V54.0825C75.7803 54.5173 75.7065 54.8941 75.5588 55.2187C75.4173 55.5375 75.1928 55.781 74.8821 55.9491C74.5776 56.1202 74.1808 56.2042 73.6886 56.2042Z" fill="#708089"/>
<path d="M79.3759 56.1926C79.1299 56.1926 78.8899 56.1607 78.6623 56.0999C78.4316 56.039 78.2194 55.9462 78.0225 55.8216C77.8318 55.6912 77.6719 55.5318 77.5427 55.3462C77.4104 55.1549 77.3212 54.9289 77.272 54.6738L78.2563 54.4419C78.2809 54.6593 78.3455 54.8361 78.4531 54.9752C78.5577 55.1086 78.69 55.2071 78.8469 55.2767C79.0099 55.3404 79.1914 55.3694 79.3882 55.3694C79.5851 55.3694 79.7481 55.3433 79.8804 55.2883C80.0188 55.2274 80.1203 55.1462 80.188 55.0448C80.2618 54.9462 80.2987 54.8332 80.2987 54.7086C80.2987 54.5781 80.2556 54.4651 80.1757 54.3723C80.1018 54.2738 80.0034 54.1868 79.8804 54.1173C79.7573 54.0477 79.6128 53.9868 79.4497 53.9318C79.2929 53.8709 79.1299 53.81 78.9576 53.7462C78.7915 53.6854 78.6315 53.6158 78.4778 53.5375C78.3209 53.4535 78.1763 53.3578 78.0471 53.2477C77.9241 53.1404 77.8257 53.0129 77.7518 52.8651C77.678 52.7115 77.6411 52.5289 77.6411 52.3202C77.6411 52.0883 77.6842 51.8854 77.7764 51.7057C77.8656 51.5289 77.9887 51.381 78.1456 51.2651C78.3086 51.1433 78.4931 51.0506 78.6992 50.9868C78.9022 50.926 79.1206 50.8941 79.3513 50.8941C79.6866 50.8941 80.0034 50.9694 80.2987 51.1144C80.594 51.2535 80.8339 51.4825 81.0246 51.7984L80.2003 52.2738C80.1018 52.097 79.9727 51.9607 79.8189 51.868C79.6712 51.7694 79.502 51.7173 79.3144 51.7173C79.1821 51.7173 79.0622 51.7404 78.9576 51.7868C78.8592 51.8332 78.7761 51.8999 78.7115 51.9839C78.6531 52.0622 78.6254 52.1578 78.6254 52.2738C78.6254 52.3897 78.6623 52.4941 78.7361 52.5868C78.81 52.6738 78.9084 52.7462 79.0314 52.8071C79.1606 52.8709 79.3052 52.9318 79.4621 52.9926C79.6158 53.0477 79.7758 53.1057 79.9419 53.1665C80.1141 53.2303 80.2772 53.3028 80.434 53.3868C80.5971 53.4651 80.7416 53.5607 80.8647 53.6767C80.9877 53.7868 81.0861 53.9173 81.16 54.0709C81.2399 54.2274 81.283 54.4129 81.283 54.6274C81.283 54.8767 81.2276 55.097 81.1231 55.2883C81.0246 55.4825 80.8893 55.6477 80.717 55.7868C80.5448 55.9202 80.3418 56.0187 80.1141 56.0883C79.8835 56.1578 79.6374 56.1926 79.3759 56.1926Z" fill="#708089"/>
<path d="M84.0467 56.1346V51.7984H82.3242V50.9636H86.7535V51.7984H85.031V56.1346H84.0467Z" fill="#708089"/>
<path d="M87.617 56.1346L89.807 50.9636H90.5452L92.7353 56.1346H91.6649L91.2466 55.01H89.118L88.6874 56.1346H87.617ZM89.4502 54.2216H90.9144L90.1884 52.3318L89.4502 54.2216Z" fill="#708089"/>
<path d="M94.2188 56.1346V50.9636H95.2154V56.1346H94.2188Z" fill="#708089"/>
<path d="M97.356 56.1346V50.9636H98.3403L100.641 54.581V50.9636H101.588V56.1346H100.604L98.3033 52.5057V56.1346H97.356Z" fill="#708089"/>
<path d="M103.084 56.1346L105.274 50.9636H106.013L108.203 56.1346H107.132L106.714 55.01H104.585L104.155 56.1346H103.084ZM104.918 54.2216H106.382L105.656 52.3318L104.918 54.2216Z" fill="#708089"/>
<path d="M109.686 56.1346V50.9636H111.593C111.756 50.9636 111.919 50.981 112.085 51.01C112.258 51.0419 112.418 51.0912 112.565 51.1607C112.719 51.2303 112.854 51.3202 112.971 51.4274C113.085 51.5375 113.174 51.668 113.242 51.8216C113.316 51.9781 113.353 52.1549 113.353 52.3549C113.353 52.5173 113.319 52.6651 113.254 52.7955C113.196 52.9289 113.122 53.0448 113.033 53.1433C112.94 53.2448 112.842 53.3231 112.737 53.3752C112.86 53.4216 112.974 53.4912 113.082 53.5839C113.187 53.6709 113.282 53.7694 113.365 53.8854C113.445 54.0013 113.506 54.126 113.549 54.2564C113.599 54.381 113.623 54.5086 113.623 54.639C113.623 54.8796 113.574 55.0912 113.476 55.2767C113.377 55.4622 113.242 55.6216 113.07 55.752C112.904 55.8767 112.716 55.9723 112.504 56.0419C112.288 56.1057 112.064 56.1346 111.827 56.1346H109.686ZM110.683 53.0506H111.692C111.815 53.0506 111.932 53.0361 112.048 53.0042C112.162 52.9665 112.258 52.8999 112.331 52.8071C112.405 52.7144 112.442 52.5839 112.442 52.4129C112.442 52.2825 112.405 52.1694 112.331 52.0767C112.258 51.9839 112.153 51.9202 112.024 51.8796C111.901 51.8332 111.759 51.81 111.605 51.81H110.683V53.0506ZM110.683 55.2535H111.839C112.091 55.2535 112.288 55.1955 112.43 55.0796C112.577 54.9578 112.651 54.7752 112.651 54.5346C112.651 54.4129 112.614 54.2999 112.541 54.1984C112.473 54.0912 112.374 54.0071 112.245 53.9433C112.122 53.8825 111.975 53.8506 111.802 53.8506H110.683V55.2535Z" fill="#708089"/>
<path d="M115.368 56.1346V50.9636H116.365V55.2535H118.703V56.1346H115.368Z" fill="#708089"/>
<path d="M120.232 56.1346V50.9636H123.886V51.8216H121.228V53.1202H123.701V53.9781H121.228V55.2535H123.886V56.1346H120.232Z" fill="#708089"/>
<path d="M130.255 55.8448L129.579 56.4129L128.865 55.6361C128.643 55.8158 128.388 55.9578 128.102 56.0651C127.822 56.1636 127.524 56.2158 127.204 56.2158C126.958 56.2158 126.724 56.1868 126.503 56.1346C126.287 56.0825 126.1 56.0013 125.937 55.8911C125.771 55.7752 125.641 55.6419 125.543 55.4854C125.451 55.323 125.408 55.1375 125.408 54.9288C125.408 54.7375 125.438 54.5636 125.506 54.4071C125.58 54.2448 125.678 54.1027 125.801 53.9781C125.924 53.8477 126.06 53.7317 126.207 53.6303C126.361 53.523 126.518 53.4274 126.675 53.3404C126.616 53.2796 126.552 53.21 126.478 53.1317C126.404 53.0477 126.33 52.9549 126.257 52.8535C126.189 52.7462 126.137 52.6332 126.097 52.5172C126.054 52.3955 126.035 52.2622 126.035 52.123C126.035 51.9317 126.075 51.7607 126.158 51.6129C126.247 51.4593 126.361 51.3317 126.503 51.2303C126.65 51.123 126.813 51.0419 126.995 50.9868C127.173 50.9346 127.358 50.9056 127.548 50.9056C127.745 50.9056 127.93 50.9375 128.102 50.9984C128.28 51.0622 128.437 51.1462 128.57 51.2535C128.708 51.3636 128.816 51.4911 128.89 51.6361C128.963 51.7839 129 51.9433 129 52.1114C129 52.3201 128.954 52.5056 128.865 52.668C128.773 52.8303 128.656 52.981 128.508 53.1201C128.36 53.2535 128.194 53.3752 128.016 53.4911L128.791 54.3027C128.88 54.0709 128.926 53.8332 128.926 53.5839L129.849 53.6767C129.831 53.9172 129.788 54.1491 129.714 54.3723C129.646 54.5897 129.554 54.7955 129.431 54.9868L130.255 55.8448ZM126.946 52.1346C126.946 52.2274 126.97 52.3259 127.019 52.4245C127.075 52.5259 127.136 52.6216 127.204 52.7143C127.278 52.8013 127.342 52.8767 127.401 52.9462C127.539 52.8709 127.662 52.7897 127.77 52.7027C127.884 52.6187 127.97 52.5288 128.028 52.4361C128.093 52.3433 128.127 52.239 128.127 52.123C128.127 52.0303 128.105 51.9462 128.065 51.868C128.022 51.7926 127.958 51.7288 127.868 51.6825C127.785 51.6303 127.684 51.6013 127.561 51.6013C127.444 51.6013 127.342 51.6245 127.253 51.6709C127.161 51.7114 127.087 51.7694 127.032 51.8448C126.973 51.923 126.946 52.0187 126.946 52.1346ZM127.179 55.4622C127.407 55.4622 127.616 55.4245 127.807 55.3462C127.994 55.2709 128.164 55.1665 128.311 55.0332L127.265 53.9201C127.093 54.0216 126.933 54.123 126.786 54.2216C126.644 54.323 126.53 54.4361 126.441 54.5578C126.358 54.6738 126.318 54.8013 126.318 54.9404C126.318 55.1201 126.395 55.2506 126.552 55.3346C126.715 55.4216 126.924 55.4622 127.179 55.4622Z" fill="#708089"/>
<path d="M133.477 56.1926C133.231 56.1926 132.991 56.1607 132.764 56.0999C132.533 56.039 132.321 55.9462 132.124 55.8216C131.933 55.6912 131.773 55.5318 131.644 55.3462C131.512 55.1549 131.423 54.9289 131.373 54.6738L132.358 54.4419C132.382 54.6593 132.447 54.8361 132.554 54.9752C132.659 55.1086 132.791 55.2071 132.948 55.2767C133.111 55.3404 133.293 55.3694 133.49 55.3694C133.686 55.3694 133.849 55.3433 133.982 55.2883C134.12 55.2274 134.222 55.1462 134.289 55.0448C134.363 54.9462 134.4 54.8332 134.4 54.7086C134.4 54.5781 134.357 54.4651 134.277 54.3723C134.203 54.2738 134.105 54.1868 133.982 54.1173C133.859 54.0477 133.714 53.9868 133.551 53.9318C133.394 53.8709 133.231 53.81 133.059 53.7462C132.893 53.6854 132.733 53.6158 132.579 53.5375C132.422 53.4535 132.278 53.3578 132.148 53.2477C132.025 53.1404 131.927 53.0129 131.853 52.8651C131.779 52.7115 131.742 52.5289 131.742 52.3202C131.742 52.0883 131.785 51.8854 131.878 51.7057C131.967 51.5289 132.09 51.381 132.247 51.2651C132.41 51.1433 132.594 51.0506 132.801 50.9868C133.004 50.926 133.222 50.8941 133.453 50.8941C133.788 50.8941 134.105 50.9694 134.4 51.1144C134.695 51.2535 134.935 51.4825 135.126 51.7984L134.302 52.2738C134.203 52.097 134.074 51.9607 133.92 51.868C133.773 51.7694 133.603 51.7173 133.416 51.7173C133.283 51.7173 133.163 51.7404 133.059 51.7868C132.96 51.8332 132.877 51.8999 132.813 51.9839C132.754 52.0622 132.727 52.1578 132.727 52.2738C132.727 52.3897 132.764 52.4941 132.837 52.5868C132.911 52.6738 133.01 52.7462 133.133 52.8071C133.262 52.8709 133.406 52.9318 133.563 52.9926C133.717 53.0477 133.877 53.1057 134.043 53.1665C134.215 53.2303 134.378 53.3028 134.535 53.3868C134.698 53.4651 134.843 53.5607 134.966 53.6767C135.089 53.7868 135.187 53.9173 135.261 54.0709C135.341 54.2274 135.384 54.4129 135.384 54.6274C135.384 54.8767 135.329 55.097 135.224 55.2883C135.126 55.4825 134.991 55.6477 134.818 55.7868C134.646 55.9202 134.443 56.0187 134.215 56.0883C133.985 56.1578 133.739 56.1926 133.477 56.1926Z" fill="#708089"/>
<path d="M137.053 56.1346V50.9636H140.707V51.8216H138.05V53.1202H140.523V53.9781H138.05V55.2535H140.707V56.1346H137.053Z" fill="#708089"/>
<path d="M144.899 56.2042C144.536 56.2042 144.213 56.1578 143.927 56.0651C143.638 55.9723 143.388 55.8448 143.176 55.6825C142.97 55.5143 142.798 55.3201 142.659 55.1027C142.518 54.8796 142.413 54.6361 142.34 54.3723C142.272 54.1114 142.241 53.8361 142.241 53.5491C142.241 53.2651 142.272 52.9897 142.34 52.7259C142.413 52.4651 142.515 52.2245 142.647 52.0071C142.786 51.7839 142.958 51.5868 143.164 51.4158C143.376 51.2477 143.625 51.1143 143.914 51.0216C144.2 50.9288 144.523 50.8825 144.886 50.8825C145.246 50.8825 145.579 50.9404 145.883 51.0564C146.194 51.1665 146.467 51.3317 146.707 51.5549C146.944 51.7723 147.138 52.0419 147.286 52.3665L146.363 52.7143C146.295 52.4825 146.191 52.3027 146.043 52.1694C145.901 52.0303 145.729 51.9317 145.526 51.868C145.329 51.7984 145.111 51.7636 144.874 51.7636C144.585 51.7636 144.336 51.81 144.124 51.9027C143.918 51.9955 143.745 52.123 143.607 52.2854C143.475 52.4419 143.376 52.6274 143.312 52.8419C143.244 53.0506 143.213 53.2767 143.213 53.5143C143.213 53.7694 143.244 54.01 143.312 54.2332C143.376 54.4506 143.475 54.6448 143.607 54.8129C143.745 54.9752 143.921 55.1027 144.136 55.1955C144.348 55.2825 144.603 55.323 144.899 55.323C145.249 55.323 145.545 55.2506 145.785 55.1027C146.031 54.9578 146.228 54.7143 146.375 54.3723L147.298 54.7201C147.15 55.0448 146.957 55.3201 146.72 55.5433C146.48 55.7607 146.206 55.9259 145.895 56.0419C145.591 56.1491 145.259 56.2042 144.899 56.2042Z" fill="#708089"/>
<path d="M150.898 56.2042C150.406 56.2042 150.003 56.1202 149.693 55.9491C149.388 55.781 149.164 55.5404 149.016 55.2303C148.868 54.9144 148.795 54.5433 148.795 54.1173V50.9636H149.779V54.0129C149.779 54.2912 149.81 54.5289 149.877 54.7202C149.942 54.9144 150.053 55.0622 150.209 55.1607C150.372 55.2622 150.603 55.3115 150.898 55.3115C151.194 55.3115 151.418 55.2622 151.575 55.1607C151.738 55.0622 151.849 54.9144 151.907 54.7202C151.972 54.5289 152.006 54.2912 152.006 54.0129V50.9636H152.99V54.0825C152.99 54.5173 152.916 54.8941 152.769 55.2187C152.627 55.5375 152.403 55.781 152.092 55.9491C151.787 56.1202 151.391 56.2042 150.898 56.2042Z" fill="#708089"/>
<path d="M155.011 56.1462V50.9636H156.795C157.047 50.9636 157.29 50.9984 157.521 51.068C157.748 51.1375 157.951 51.239 158.124 51.3694C158.296 51.4941 158.431 51.6535 158.53 51.8448C158.634 52.0303 158.69 52.2477 158.69 52.4941C158.69 52.7115 158.64 52.9086 158.542 53.0854C158.45 53.2651 158.324 53.4187 158.161 53.5491C158.004 53.6738 157.822 53.7694 157.619 53.839L159.145 56.1462H158.013L156.66 53.9202H156.007V56.1462H155.011ZM156.007 53.1665H156.881C157.142 53.1607 157.349 53.097 157.496 52.981C157.644 52.8593 157.718 52.6999 157.718 52.5057C157.718 52.2912 157.635 52.1202 157.472 51.9955C157.306 51.8651 157.081 51.7984 156.795 51.7984H156.007V53.1665Z" fill="#708089"/>
<path d="M160.67 56.1346V50.9636H164.324V51.8216H161.666V53.1202H164.139V53.9781H161.666V55.2535H164.324V56.1346H160.67Z" fill="#708089"/>
<path d="M170.693 55.8448L170.016 56.4129L169.303 55.6361C169.081 55.8158 168.826 55.9578 168.54 56.0651C168.26 56.1636 167.962 56.2158 167.642 56.2158C167.396 56.2158 167.162 56.1868 166.941 56.1346C166.725 56.0825 166.538 56.0013 166.375 55.8911C166.208 55.7752 166.079 55.6419 165.981 55.4854C165.889 55.323 165.846 55.1375 165.846 54.9288C165.846 54.7375 165.876 54.5636 165.944 54.4071C166.018 54.2448 166.116 54.1027 166.239 53.9781C166.362 53.8477 166.498 53.7317 166.645 53.6303C166.799 53.523 166.956 53.4274 167.113 53.3404C167.054 53.2796 166.99 53.21 166.916 53.1317C166.842 53.0477 166.768 52.9549 166.694 52.8535C166.627 52.7462 166.575 52.6332 166.535 52.5172C166.491 52.3955 166.473 52.2622 166.473 52.123C166.473 51.9317 166.513 51.7607 166.596 51.6129C166.685 51.4593 166.799 51.3317 166.941 51.2303C167.088 51.123 167.251 51.0419 167.433 50.9868C167.611 50.9346 167.796 50.9056 167.986 50.9056C168.183 50.9056 168.368 50.9375 168.54 50.9984C168.718 51.0622 168.875 51.1462 169.008 51.2535C169.146 51.3636 169.254 51.4911 169.327 51.6361C169.401 51.7839 169.438 51.9433 169.438 52.1114C169.438 52.3201 169.392 52.5056 169.303 52.668C169.211 52.8303 169.094 52.981 168.946 53.1201C168.798 53.2535 168.632 53.3752 168.454 53.4911L169.229 54.3027C169.318 54.0709 169.364 53.8332 169.364 53.5839L170.287 53.6767C170.269 53.9172 170.226 54.1491 170.152 54.3723C170.084 54.5897 169.992 54.7955 169.869 54.9868L170.693 55.8448ZM167.384 52.1346C167.384 52.2274 167.408 52.3259 167.457 52.4245C167.513 52.5259 167.574 52.6216 167.642 52.7143C167.716 52.8013 167.78 52.8767 167.839 52.9462C167.977 52.8709 168.1 52.7897 168.208 52.7027C168.322 52.6187 168.408 52.5288 168.466 52.4361C168.531 52.3433 168.565 52.239 168.565 52.123C168.565 52.0303 168.543 51.9462 168.503 51.868C168.46 51.7926 168.395 51.7288 168.306 51.6825C168.223 51.6303 168.122 51.6013 167.999 51.6013C167.882 51.6013 167.78 51.6245 167.691 51.6709C167.599 51.7114 167.525 51.7694 167.47 51.8448C167.411 51.923 167.384 52.0187 167.384 52.1346ZM167.617 55.4622C167.845 55.4622 168.054 55.4245 168.245 55.3462C168.432 55.2709 168.602 55.1665 168.749 55.0332L167.703 53.9201C167.531 54.0216 167.371 54.123 167.224 54.2216C167.082 54.323 166.968 54.4361 166.879 54.5578C166.796 54.6738 166.756 54.8013 166.756 54.9404C166.756 55.1201 166.833 55.2506 166.99 55.3346C167.153 55.4216 167.362 55.4622 167.617 55.4622Z" fill="#708089"/>
<path d="M173.915 56.1926C173.669 56.1926 173.429 56.1607 173.202 56.0999C172.971 56.039 172.759 55.9462 172.562 55.8216C172.371 55.6912 172.211 55.5318 172.082 55.3462C171.95 55.1549 171.86 54.9289 171.811 54.6738L172.796 54.4419C172.82 54.6593 172.885 54.8361 172.992 54.9752C173.097 55.1086 173.229 55.2071 173.386 55.2767C173.549 55.3404 173.731 55.3694 173.927 55.3694C174.124 55.3694 174.287 55.3433 174.42 55.2883C174.558 55.2274 174.66 55.1462 174.727 55.0448C174.801 54.9462 174.838 54.8332 174.838 54.7086C174.838 54.5781 174.795 54.4651 174.715 54.3723C174.641 54.2738 174.543 54.1868 174.42 54.1173C174.297 54.0477 174.152 53.9868 173.989 53.9318C173.832 53.8709 173.669 53.81 173.497 53.7462C173.331 53.6854 173.171 53.6158 173.017 53.5375C172.86 53.4535 172.716 53.3578 172.586 53.2477C172.463 53.1404 172.365 53.0129 172.291 52.8651C172.217 52.7115 172.18 52.5289 172.18 52.3202C172.18 52.0883 172.223 51.8854 172.316 51.7057C172.405 51.5289 172.528 51.381 172.685 51.2651C172.848 51.1433 173.032 51.0506 173.238 50.9868C173.441 50.926 173.66 50.8941 173.891 50.8941C174.226 50.8941 174.543 50.9694 174.838 51.1144C175.133 51.2535 175.373 51.4825 175.564 51.7984L174.74 52.2738C174.641 52.097 174.512 51.9607 174.358 51.868C174.21 51.7694 174.041 51.7173 173.854 51.7173C173.721 51.7173 173.601 51.7404 173.497 51.7868C173.398 51.8332 173.315 51.8999 173.251 51.9839C173.192 52.0622 173.165 52.1578 173.165 52.2738C173.165 52.3897 173.202 52.4941 173.275 52.5868C173.349 52.6738 173.448 52.7462 173.571 52.8071C173.7 52.8709 173.844 52.9318 174.001 52.9926C174.155 53.0477 174.315 53.1057 174.481 53.1665C174.653 53.2303 174.816 53.3028 174.973 53.3868C175.136 53.4651 175.281 53.5607 175.404 53.6767C175.527 53.7868 175.625 53.9173 175.699 54.0709C175.779 54.2274 175.822 54.4129 175.822 54.6274C175.822 54.8767 175.767 55.097 175.662 55.2883C175.564 55.4825 175.429 55.6477 175.256 55.7868C175.084 55.9202 174.881 56.0187 174.653 56.0883C174.423 56.1578 174.177 56.1926 173.915 56.1926Z" fill="#708089"/>
<path d="M176.839 56.1346L179.029 50.9636H179.767L181.957 56.1346H180.887L180.468 55.01H178.34L177.909 56.1346H176.839ZM178.672 54.2216H180.136L179.41 52.3318L178.672 54.2216Z" fill="#708089"/>
<path d="M184.979 56.1346L182.789 50.9636H183.871L185.36 54.6274L186.824 50.9636H187.907L185.717 56.1346H184.979Z" fill="#708089"/>
<path d="M189.39 56.1346V50.9636H193.045V51.8216H190.387V53.1202H192.86V53.9781H190.387V55.2535H193.045V56.1346H189.39Z" fill="#708089"/>
<path d="M199.414 55.8448L198.737 56.4129L198.024 55.6361C197.802 55.8158 197.547 55.9578 197.261 56.0651C196.981 56.1636 196.683 56.2158 196.363 56.2158C196.117 56.2158 195.883 56.1868 195.661 56.1346C195.446 56.0825 195.258 56.0013 195.095 55.8911C194.929 55.7752 194.8 55.6419 194.702 55.4854C194.609 55.323 194.566 55.1375 194.566 54.9288C194.566 54.7375 194.597 54.5636 194.665 54.4071C194.739 54.2448 194.837 54.1027 194.96 53.9781C195.083 53.8477 195.218 53.7317 195.366 53.6303C195.52 53.523 195.677 53.4274 195.834 53.3404C195.775 53.2796 195.711 53.21 195.637 53.1317C195.563 53.0477 195.489 52.9549 195.415 52.8535C195.348 52.7462 195.295 52.6332 195.255 52.5172C195.212 52.3955 195.194 52.2622 195.194 52.123C195.194 51.9317 195.234 51.7607 195.317 51.6129C195.406 51.4593 195.52 51.3317 195.661 51.2303C195.809 51.123 195.972 51.0419 196.153 50.9868C196.332 50.9346 196.516 50.9056 196.707 50.9056C196.904 50.9056 197.089 50.9375 197.261 50.9984C197.439 51.0622 197.596 51.1462 197.728 51.2535C197.867 51.3636 197.974 51.4911 198.048 51.6361C198.122 51.7839 198.159 51.9433 198.159 52.1114C198.159 52.3201 198.113 52.5056 198.024 52.668C197.931 52.8303 197.814 52.981 197.667 53.1201C197.519 53.2535 197.353 53.3752 197.175 53.4911L197.95 54.3027C198.039 54.0709 198.085 53.8332 198.085 53.5839L199.008 53.6767C198.989 53.9172 198.946 54.1491 198.873 54.3723C198.805 54.5897 198.713 54.7955 198.59 54.9868L199.414 55.8448ZM196.104 52.1346C196.104 52.2274 196.129 52.3259 196.178 52.4245C196.233 52.5259 196.295 52.6216 196.363 52.7143C196.436 52.8013 196.501 52.8767 196.56 52.9462C196.698 52.8709 196.821 52.7897 196.929 52.7027C197.042 52.6187 197.129 52.5288 197.187 52.4361C197.252 52.3433 197.285 52.239 197.285 52.123C197.285 52.0303 197.264 51.9462 197.224 51.868C197.181 51.7926 197.116 51.7288 197.027 51.6825C196.944 51.6303 196.842 51.6013 196.719 51.6013C196.603 51.6013 196.501 51.6245 196.412 51.6709C196.32 51.7114 196.246 51.7694 196.19 51.8448C196.132 51.923 196.104 52.0187 196.104 52.1346ZM196.338 55.4622C196.566 55.4622 196.775 55.4245 196.966 55.3462C197.153 55.2709 197.322 55.1665 197.47 55.0332L196.424 53.9201C196.252 54.0216 196.092 54.123 195.944 54.2216C195.803 54.323 195.689 54.4361 195.6 54.5578C195.517 54.6738 195.477 54.8013 195.477 54.9404C195.477 55.1201 195.554 55.2506 195.711 55.3346C195.874 55.4216 196.083 55.4622 196.338 55.4622Z" fill="#708089"/>
<path d="M202.636 56.1926C202.39 56.1926 202.15 56.1607 201.922 56.0999C201.692 56.039 201.479 55.9462 201.283 55.8216C201.092 55.6912 200.932 55.5318 200.803 55.3462C200.67 55.1549 200.581 54.9289 200.532 54.6738L201.516 54.4419C201.541 54.6593 201.606 54.8361 201.713 54.9752C201.818 55.1086 201.95 55.2071 202.107 55.2767C202.27 55.3404 202.451 55.3694 202.648 55.3694C202.845 55.3694 203.008 55.3433 203.14 55.2883C203.279 55.2274 203.38 55.1462 203.448 55.0448C203.522 54.9462 203.559 54.8332 203.559 54.7086C203.559 54.5781 203.516 54.4651 203.436 54.3723C203.362 54.2738 203.263 54.1868 203.14 54.1173C203.017 54.0477 202.873 53.9868 202.71 53.9318C202.553 53.8709 202.39 53.81 202.218 53.7462C202.052 53.6854 201.892 53.6158 201.738 53.5375C201.581 53.4535 201.436 53.3578 201.307 53.2477C201.184 53.1404 201.086 53.0129 201.012 52.8651C200.938 52.7115 200.901 52.5289 200.901 52.3202C200.901 52.0883 200.944 51.8854 201.036 51.7057C201.126 51.5289 201.249 51.381 201.406 51.2651C201.569 51.1433 201.753 51.0506 201.959 50.9868C202.162 50.926 202.381 50.8941 202.611 50.8941C202.947 50.8941 203.263 50.9694 203.559 51.1144C203.854 51.2535 204.094 51.4825 204.285 51.7984L203.46 52.2738C203.362 52.097 203.233 51.9607 203.079 51.868C202.931 51.7694 202.762 51.7173 202.574 51.7173C202.442 51.7173 202.322 51.7404 202.218 51.7868C202.119 51.8332 202.036 51.8999 201.972 51.9839C201.913 52.0622 201.885 52.1578 201.885 52.2738C201.885 52.3897 201.922 52.4941 201.996 52.5868C202.07 52.6738 202.168 52.7462 202.291 52.8071C202.421 52.8709 202.565 52.9318 202.722 52.9926C202.876 53.0477 203.036 53.1057 203.202 53.1665C203.374 53.2303 203.537 53.3028 203.694 53.3868C203.857 53.4651 204.002 53.5607 204.125 53.6767C204.248 53.7868 204.346 53.9173 204.42 54.0709C204.5 54.2274 204.543 54.4129 204.543 54.6274C204.543 54.8767 204.488 55.097 204.383 55.2883C204.285 55.4825 204.149 55.6477 203.977 55.7868C203.805 55.9202 203.602 56.0187 203.374 56.0883C203.143 56.1578 202.897 56.1926 202.636 56.1926Z" fill="#708089"/>
<path d="M206.212 56.1346V50.9636H207.54L209.005 54.639L210.456 50.9636H211.785V56.1346H210.838V52.2738L209.472 55.6825H208.525L207.159 52.2738V56.1346H206.212Z" fill="#708089"/>
<path d="M213.274 56.1346L215.465 50.9636H216.203L218.393 56.1346H217.322L216.904 55.01H214.776L214.345 56.1346H213.274ZM215.108 54.2216H216.572L215.846 52.3318L215.108 54.2216Z" fill="#708089"/>
<path d="M219.876 56.1462V50.9636H221.66C221.913 50.9636 222.156 50.9984 222.386 51.068C222.614 51.1375 222.817 51.239 222.989 51.3694C223.161 51.4941 223.297 51.6535 223.395 51.8448C223.5 52.0303 223.555 52.2477 223.555 52.4941C223.555 52.7115 223.506 52.9086 223.408 53.0854C223.315 53.2651 223.189 53.4187 223.026 53.5491C222.869 53.6738 222.688 53.7694 222.485 53.839L224.01 56.1462H222.878L221.525 53.9202H220.873V56.1462H219.876ZM220.873 53.1665H221.747C222.008 53.1607 222.214 53.097 222.362 52.981C222.509 52.8593 222.583 52.6999 222.583 52.5057C222.583 52.2912 222.5 52.1202 222.337 51.9955C222.171 51.8651 221.946 51.7984 221.66 51.7984H220.873V53.1665Z" fill="#708089"/>
<path d="M226.63 56.1346V51.7984H224.908V50.9636H229.337V51.7984H227.614V56.1346H226.63Z" fill="#708089"/>
<path d="M64.681 35.661L60.2517 34.6755C58.4861 34.2813 57.2865 33.6784 56.6467 32.8668C56.0069 32.0552 55.687 30.8958 55.687 29.3885C55.687 27.0001 56.3545 25.2465 57.6925 24.1248C59.0275 22.9972 61.1006 22.432 63.9059 22.432C65.0686 22.432 66.1021 22.4755 67.0064 22.5595C67.9169 22.6465 68.7536 22.8001 69.5164 23.0233V27.5798C67.7508 27.2958 66.5389 27.1334 65.8745 27.0929C65.2162 27.0465 64.5272 27.0233 63.8075 27.0233C62.8293 27.0233 62.1218 27.1798 61.6789 27.4871C61.236 27.7885 61.0145 28.3045 61.0145 29.0291C61.0145 29.3769 61.0822 29.6436 61.2237 29.8291C61.3621 30.0146 61.6328 30.1508 62.0357 30.2349L66.2067 31.1624C67.4124 31.4262 68.2799 31.6842 68.8151 31.9392C69.3564 32.1885 69.7871 32.5074 70.107 32.9016C70.4822 33.319 70.7591 33.8581 70.9313 34.5132C71.1036 35.1624 71.1897 35.9595 71.1897 36.9016C71.1897 39.29 70.5161 41.0146 69.1719 42.0726C67.8246 43.1335 65.733 43.661 62.897 43.661C61.4605 43.661 60.0917 43.5798 58.7875 43.4175C57.4895 43.2552 56.4806 43.0552 55.7608 42.8146V37.9914C56.6867 38.2697 57.7909 38.4958 59.0705 38.6639C60.3501 38.8262 61.6235 38.9074 62.897 38.9074C63.9213 38.9074 64.6318 38.7885 65.0255 38.5479C65.4192 38.3103 65.6161 37.8262 65.6161 37.0987C65.6161 36.6436 65.5484 36.3103 65.4192 36.1016C65.2962 35.8929 65.0501 35.7479 64.681 35.661Z" fill="#708089"/>
<path d="M93.4483 33.0291C93.4483 36.7711 92.6394 39.4813 91.0245 41.1566C89.4066 42.8262 86.792 43.661 83.1747 43.661C79.3852 43.661 76.7214 42.8784 75.1896 41.3074C73.6547 39.7306 72.8888 36.9711 72.8888 33.0291C72.8888 29.29 73.6947 26.5885 75.3127 24.9248C76.9275 23.2639 79.5482 22.432 83.1747 22.432C86.9551 22.432 89.6127 23.2204 91.1476 24.7972C92.6794 26.3682 93.4483 29.1103 93.4483 33.0291ZM79.0284 37.4233C79.3237 37.974 79.7666 38.3595 80.3572 38.5827C80.9539 38.8001 81.8951 38.9074 83.1747 38.9074C84.4451 38.9074 85.3771 38.8001 85.9677 38.5827C86.5644 38.3595 87.0135 37.974 87.3088 37.4233C87.5456 36.9914 87.7148 36.4262 87.8132 35.7306C87.9178 35.0291 87.9732 34.1277 87.9732 33.0291C87.9732 31.9161 87.9178 31.0059 87.8132 30.2929C87.7148 29.5827 87.5456 29.0059 87.3088 28.5653C87.0289 27.9943 86.5952 27.5972 86.0046 27.3711C85.414 27.1392 84.4697 27.0233 83.1747 27.0233C81.8705 27.0233 80.9232 27.1392 80.3326 27.3711C79.742 27.5972 79.3052 27.9943 79.0284 28.5653C78.7885 29.0059 78.6162 29.5827 78.5116 30.2929C78.4132 31.0059 78.364 31.9161 78.364 33.0291C78.364 34.1277 78.4132 35.0291 78.5116 35.7306C78.6162 36.4262 78.7885 36.9914 79.0284 37.4233Z" fill="#708089"/>
<path d="M110.192 38.5827V43.3363H96.2638V22.7566H101.665V38.5827H110.192Z" fill="#708089"/>
<path d="M125.692 34.6754V22.7566H131.094V34.6754C131.094 37.6667 130.312 39.9131 128.756 41.4117C127.197 42.9131 124.862 43.6609 121.755 43.6609C118.482 43.6609 116.095 42.9508 114.594 41.5276C113.1 40.1073 112.355 37.8233 112.355 34.6754V22.7566H117.757V34.6754C117.757 36.3392 118.027 37.458 118.569 38.0378C119.116 38.6175 120.18 38.9073 121.755 38.9073C123.312 38.9073 124.357 38.6175 124.893 38.0378C125.425 37.458 125.692 36.3392 125.692 34.6754Z" fill="#708089"/>
<path d="M150.53 22.7566V27.3479H144.575V43.3363H139.174V27.3479H133.219V22.7566H150.53Z" fill="#6AC23F"/>
<path d="M158.228 22.7566V43.3363H152.827V22.7566H158.228Z" fill="#6AC23F"/>
<path d="M181.599 33.0291C181.599 36.7711 180.79 39.4813 179.175 41.1566C177.557 42.8262 174.942 43.661 171.325 43.661C167.535 43.661 164.872 42.8784 163.34 41.3074C161.805 39.7306 161.039 36.9711 161.039 33.0291C161.039 29.29 161.845 26.5885 163.463 24.9248C165.078 23.2639 167.698 22.432 171.325 22.432C175.105 22.432 177.763 23.2204 179.298 24.7972C180.83 26.3682 181.599 29.1103 181.599 33.0291ZM167.179 37.4233C167.474 37.974 167.917 38.3595 168.507 38.5827C169.104 38.8001 170.045 38.9074 171.325 38.9074C172.595 38.9074 173.527 38.8001 174.118 38.5827C174.715 38.3595 175.164 37.974 175.459 37.4233C175.696 36.9914 175.865 36.4262 175.964 35.7306C176.068 35.0291 176.123 34.1277 176.123 33.0291C176.123 31.9161 176.068 31.0059 175.964 30.2929C175.865 29.5827 175.696 29.0059 175.459 28.5653C175.179 27.9943 174.745 27.5972 174.155 27.3711C173.564 27.1392 172.62 27.0233 171.325 27.0233C170.021 27.0233 169.073 27.1392 168.483 27.3711C167.892 27.5972 167.455 27.9943 167.179 28.5653C166.939 29.0059 166.766 29.5827 166.662 30.2929C166.563 31.0059 166.514 31.9161 166.514 33.0291C166.514 34.1277 166.563 35.0291 166.662 35.7306C166.766 36.4262 166.939 36.9914 167.179 37.4233Z" fill="#6AC23F"/>
<path d="M203.251 22.7566V43.3363H198.096L189.459 31.4522V43.3363H184.414V22.7566H189.532L198.207 35.0928V22.7566H203.251Z" fill="#6AC23F"/>
<path d="M222.732 34.2465V38.6754H220.357V43.3363H214.956V38.6754H205.937V34.2465L208.41 22.7566H213.602L211.412 34.2465H214.956V26.3624H220.357V34.2465H222.732Z" fill="#708089"/>
<path d="M233.491 35.661L229.062 34.6755C227.296 34.2813 226.097 33.6784 225.457 32.8668C224.817 32.0552 224.497 30.8958 224.497 29.3885C224.497 27.0001 225.165 25.2465 226.503 24.1248C227.838 22.9972 229.911 22.432 232.716 22.432C233.879 22.432 234.912 22.4755 235.817 22.5595C236.727 22.6465 237.564 22.8001 238.327 23.0233V27.5798C236.561 27.2958 235.349 27.1334 234.685 27.0929C234.027 27.0465 233.338 27.0233 232.618 27.0233C231.64 27.0233 230.932 27.1798 230.489 27.4871C230.046 27.7885 229.825 28.3045 229.825 29.0291C229.825 29.3769 229.892 29.6436 230.034 29.8291C230.172 30.0146 230.443 30.1508 230.846 30.2349L235.017 31.1624C236.223 31.4262 237.09 31.6842 237.625 31.9392C238.167 32.1885 238.597 32.5074 238.917 32.9016C239.293 33.319 239.569 33.8581 239.742 34.5132C239.914 35.1624 240 35.9595 240 36.9016C240 39.29 239.326 41.0146 237.982 42.0726C236.635 43.1335 234.543 43.661 231.707 43.661C230.271 43.661 228.902 43.5798 227.598 43.4175C226.3 43.2552 225.291 43.0552 224.571 42.8146V37.9914C225.497 38.2697 226.601 38.4958 227.881 38.6639C229.16 38.8262 230.434 38.9074 231.707 38.9074C232.732 38.9074 233.442 38.7885 233.836 38.5479C234.23 38.3103 234.426 37.8262 234.426 37.0987C234.426 36.6436 234.359 36.3103 234.23 36.1016C234.107 35.8929 233.86 35.7479 233.491 35.661Z" fill="#708089"/>
</svg>
